<svg width="51" height="51" viewBox="0 0 51 51" fill="none" xmlns="http://www.w3.org/2000/svg">
<g clip-path="url(#clip0_1_733)">
<path d="M26.4724 50.4957L29.4973 34.9926H19.4889L16.8001 48.9641C17.3478 49.1633 18.0947 49.3999 19.0408 49.6739C21.5055 50.3463 23.9827 50.6202 26.4724 50.4957Z" fill="#103B66"/>
<path d="M31.4778 24.7695L34.5401 9.15426H44.3617C41.0505 5.29403 36.9177 2.7164 31.9633 1.42135C25.2911 -0.371783 18.9799 0.462524 13.0296 3.92428C7.05449 7.36112 3.17066 12.4168 1.37812 19.0912C0.357366 22.8518 0.232884 26.6374 1.00467 30.4478C1.75156 34.1088 3.24535 37.446 5.48602 40.4594L11.5732 9.15426H24.5318L21.5068 24.7695H31.4778Z" fill="#103B66"/>
<path d="M49.626 32.004C50.5472 28.6419 50.7464 25.2424 50.2235 21.8056C49.7256 18.4932 48.5928 15.3926 46.8252 12.5037L40.4019 45.602C45.0824 42.1153 48.1571 37.5827 49.626 32.004Z" fill="#103B66"/>
</g>
<defs>
<clipPath id="clip0_1_733">
<rect width="51" height="51" fill="white"/>
</clipPath>
</defs>
</svg>
